<svg width="30" height="30" viewBox="0 0 30 30" fill="none" xmlns="http://www.w3.org/2000/svg">
<path d="M6.25024 3.74999L6.25024 26.25C6.25095 26.4778 6.31378 26.7011 6.43196 26.8958C6.55014 27.0906 6.71919 27.2494 6.92093 27.3552C7.12266 27.461 7.34944 27.5098 7.57684 27.4964C7.80424 27.4829 8.02366 27.4076 8.21149 27.2787L24.4615 16.0287C25.1352 15.5625 25.1352 14.44 24.4615 13.9725L8.21149 2.72249C8.02406 2.59227 7.80453 2.5159 7.57674 2.50169C7.34896 2.48748 7.12164 2.53597 6.91948 2.64188C6.71732 2.74779 6.54804 2.90708 6.43006 3.10244C6.31207 3.2978 6.24988 3.52176 6.25024 3.74999ZM21.554 15L8.75024 23.865L8.75024 6.13499L21.554 15Z" fill="#333333"/>
</svg>
