<svg width="30" height="30" viewBox="0 0 30 30" fill="none" xmlns="http://www.w3.org/2000/svg">
<path d="M23.7498 26.25L23.7498 3.75002C23.749 3.52222 23.6862 3.29892 23.568 3.10417C23.4499 2.90942 23.2808 2.75059 23.0791 2.64477C22.8773 2.53896 22.6506 2.49016 22.4232 2.50364C22.1958 2.51712 21.9763 2.59236 21.7885 2.72127L5.53852 13.9713C4.86477 14.4375 4.86477 15.56 5.53852 16.0275L21.7885 27.2775C21.9759 27.4077 22.1955 27.4841 22.4233 27.4983C22.651 27.5125 22.8784 27.464 23.0805 27.3581C23.2827 27.2522 23.452 27.0929 23.5699 26.8976C23.6879 26.7022 23.7501 26.4782 23.7498 26.25ZM8.44602 15L21.2498 6.13502L21.2498 23.865L8.44602 15Z" fill="#333333"/>
</svg>
