<?xml version="1.0" encoding="utf-8"?>
<!-- Generator: Adobe Illustrator 26.2.1, SVG Export Plug-In . SVG Version: 6.00 Build 0)  -->
<svg version="1.1" id="Layer_1" xmlns="http://www.w3.org/2000/svg" xmlns:xlink="http://www.w3.org/1999/xlink" x="0px" y="0px"
	 viewBox="0 0 220.22 47.23" style="enable-background:new 0 0 220.22 47.23;" xml:space="preserve">
<style type="text/css">
	.st0{fill:#B6CF51;}
	.st1{fill:#E9E886;}
</style>
<g>
	<path class="st0" d="M3.14,5.26h20.63c1.73,0,3.14,1.41,3.14,3.14v0c0,1.73-1.41,3.14-3.14,3.14H7.47v10.73H20.8
		c1.73,0,3.14,1.41,3.14,3.14v0c0,1.73-1.41,3.14-3.14,3.14H7.47v12.4h16.95c1.73,0,3.14,1.41,3.14,3.14v0
		c0,1.73-1.41,3.14-3.14,3.14H3.14C1.41,47.23,0,45.82,0,44.09V8.4C0,6.67,1.41,5.26,3.14,5.26z"/>
	<path class="st0" d="M41.32,30.87l-9.24-13.21c-0.57-0.82,0.01-1.95,1.02-1.95h5c0.41,0,0.79,0.2,1.02,0.54l3.7,5.39
		c0.02,0.02,0.03,0.04,0.04,0.07c1.02,1.75,2.29,3.62,3.45,5.32h0.26c0.98-1.71,2.12-3.62,3.07-5.37c0.01-0.02,0.02-0.04,0.04-0.06
		l3.32-5.3c0.23-0.36,0.62-0.58,1.05-0.58h4.78c0.99,0,1.58,1.11,1.03,1.93l-9.41,13.98l10.04,13.63c0.6,0.82,0.02,1.97-1,1.97
		h-4.99c-0.4,0-0.77-0.19-1-0.51l-4.13-5.69c-1.25-1.76-2.62-3.8-3.87-5.6h-0.26c-1.11,1.83-2.27,3.68-3.39,5.61
		c-0.01,0.02-0.02,0.04-0.04,0.06l-3.73,5.58c-0.23,0.34-0.62,0.55-1.03,0.55h-4.75c-1,0-1.59-1.13-1.02-1.95L41.32,30.87z"/>
	<g>
		<path class="st0" d="M77.83,21.58H67.16c-1.62,0-2.94-1.32-2.94-2.94v0c0-1.62,1.32-2.94,2.94-2.94h15.16
			c1.62,0,2.94,1.32,2.94,2.94v25.65c0,1.62-1.32,2.94-2.94,2.94h-1.55c-1.62,0-2.94-1.32-2.94-2.94V21.58z"/>
		<g>
			<path class="st1" d="M75.79,5c0-2.96,2.22-5,5.27-5c3.05,0,5.27,2.05,5.27,5c0,3-2.22,4.96-5.27,4.96C78.01,9.96,75.79,8,75.79,5
				z"/>
		</g>
	</g>
	<path class="st0" d="M98.26,33.79V20.81h-5.64c-1.55,0-2.8-1.25-2.8-2.8v-0.05c0-1.5,1.19-2.74,2.69-2.8l6.06-0.24l0.72-7.35
		c0.14-1.43,1.35-2.53,2.79-2.53h0.81c1.55,0,2.8,1.25,2.8,2.8v7.07h11.54c1.55,0,2.8,1.25,2.8,2.8v0.28c0,1.55-1.25,2.8-2.8,2.8
		h-11.54v12.94c0,5.21,1.96,7.55,7.28,7.55c1.57,0,2.97-0.19,4.29-0.5c1.46-0.34,2.92,0.56,3.31,2.01v0
		c0.39,1.48-0.47,3.02-1.95,3.42c-2.16,0.57-4.58,0.99-7.44,0.99C101.54,47.23,98.26,41.82,98.26,33.79z"/>
	<path class="st0" d="M124.16,34.46v-16.3c0-1.78,1.44-3.22,3.22-3.22h0.98c1.78,0,3.22,1.44,3.22,3.22V33.5
		c0,5.02,1.58,7.37,5.89,7.37c2.66,0,4.66-1.01,7.08-3.69c0.53-0.59,0.82-1.36,0.82-2.16V18.16c0-1.78,1.44-3.22,3.22-3.22h0.98
		c1.78,0,3.22,1.44,3.22,3.22v25.08c0,1.78-1.44,3.22-3.22,3.22l0,0c-1.64,0-3.02-1.23-3.2-2.86l-0.24-2.15h-0.26
		c-2.98,3.45-6.47,5.78-11.17,5.78C127.4,47.23,124.16,42.58,124.16,34.46z"/>
	<path class="st0" d="M160.23,15.71L160.23,15.71c1.63,0,3,1.22,3.19,2.83l0.23,1.91h0.26c3.01-3.05,6.56-5.51,11.37-5.51
		c7.29,0,10.57,4.65,10.57,12.77v16.31c0,1.77-1.44,3.21-3.21,3.21h-1c-1.77,0-3.21-1.44-3.21-3.21V28.67
		c0-5.06-1.63-7.37-5.88-7.37c-2.74,0-4.7,1.17-7.11,3.45c-0.64,0.6-1,1.45-1,2.33v16.94c0,1.77-1.44,3.21-3.21,3.21h-1
		c-1.77,0-3.21-1.44-3.21-3.21v-25.1C157.02,17.14,158.46,15.71,160.23,15.71z"/>
	<path class="st0" d="M189.35,30.66c0-10.28,7.81-16.49,16.25-16.49c9.41,0,14.63,6.24,14.63,14.96c0,1.04-0.1,2.07-0.2,2.87
		c-0.06,0.5-0.48,0.86-0.98,0.86h-23.4c-0.55,0-0.99-0.44-0.99-0.99v-3.25c0-0.55,0.44-0.99,0.99-0.99h17.29
		c0.85,0,1.31,1,0.75,1.64v0c0-6.23-2.93-9.39-7.86-9.39c-5.21,0-9.23,3.75-9.23,10.79c0,7.33,4.41,10.83,10.97,10.83
		c2.97,0,5.47-0.78,8-2.11c0.48-0.25,1.07-0.06,1.33,0.41l1.6,2.9c0.26,0.46,0.11,1.05-0.34,1.32c-3.24,1.92-7.28,3.22-11.55,3.22
		C196.93,47.23,189.35,41.15,189.35,30.66z"/>
</g>
</svg>
